<svg xmlns="http://www.w3.org/2000/svg" xml:space="preserve" viewBox="0 0 512 512">
	<path
		d="M433.08 117.94c-24.87-3.74-48.93-4.57-71.5-2.48-31.53 2.93-59.13 11.58-82.04 25.7a7.5 7.5 0 0 0 7.88 12.78c48.46-29.9 110.67-26.1 143.43-21.17a7.5 7.5 0 0 0 2.23-14.83zM433.08 180.09c-24.87-3.74-48.93-4.58-71.5-2.48-31.53 2.93-59.13 11.58-82.04 25.7a7.5 7.5 0 0 0 7.88 12.77c48.46-29.89 110.67-26.09 143.44-21.16a7.5 7.5 0 0 0 2.22-14.83zM433.08 242.24c-24.87-3.74-48.93-4.58-71.5-2.48-31.53 2.93-59.13 11.58-82.04 25.7a7.5 7.5 0 0 0 7.88 12.77c48.46-29.89 110.67-26.09 143.43-21.16a7.5 7.5 0 0 0 2.23-14.83zM433.08 304.38c-24.87-3.73-48.93-4.57-71.5-2.47-31.53 2.93-59.13 11.58-82.04 25.7a7.5 7.5 0 0 0 7.88 12.77c48.46-29.89 110.67-26.09 143.43-21.16a7.5 7.5 0 0 0 2.23-14.84zM81.14 132.77c32.77-4.93 94.98-8.73 143.44 21.17a7.5 7.5 0 0 0 7.88-12.77c-22.91-14.13-50.51-22.78-82.04-25.7-22.57-2.1-46.63-1.27-71.5 2.47a7.5 7.5 0 0 0 2.23 14.83zM81.14 194.92c32.77-4.93 94.98-8.73 143.44 21.16a7.5 7.5 0 0 0 7.88-12.76c-22.91-14.13-50.51-22.78-82.04-25.7-22.57-2.1-46.63-1.27-71.5 2.47a7.5 7.5 0 0 0 2.23 14.83zM81.14 257.07c32.77-4.93 94.98-8.73 143.44 21.16a7.5 7.5 0 0 0 7.88-12.76c-22.91-14.13-50.51-22.78-82.04-25.7-22.57-2.1-46.63-1.27-71.5 2.47a7.5 7.5 0 0 0 2.23 14.83zM81.14 319.22c32.77-4.93 94.98-8.73 143.44 21.16a7.5 7.5 0 0 0 7.88-12.76c-22.91-14.13-50.51-22.78-82.04-25.7-22.57-2.1-46.63-1.27-71.5 2.47a7.5 7.5 0 0 0 2.23 14.83z"
		data-original="#000000" />
	<path
		d="M498.9 89.38a360.43 360.43 0 0 0-28.29-5.71 18.8 18.8 0 0 0-14.5-17.4C425.46 59.06 322.48 40.86 256 101 189.52 40.88 86.53 59.06 55.9 66.26a18.8 18.8 0 0 0-14.51 17.4 360.02 360.02 0 0 0-28.28 5.72A17.2 17.2 0 0 0 0 106.13v305.01c0 11.09 10.3 19.3 21.1 16.81 16.01-3.68 48.46-9.75 85.85-9.2 45.1.7 83.58 10.7 114.39 29.71a37.4 37.4 0 0 0 19.65 5.56h30.02a37.4 37.4 0 0 0 19.65-5.56c30.8-19 69.3-29 114.39-29.7 37.39-.56 69.84 5.5 85.85 9.2a17.24 17.24 0 0 0 21.1-16.82V106.13c0-7.96-5.4-14.84-13.1-16.75zM497 411.14a2.24 2.24 0 0 1-2.74 2.2c-16.67-3.84-50.45-10.18-89.44-9.58-47.84.74-88.9 11.49-122.03 31.94a22.4 22.4 0 0 1-11.78 3.32h-30.02a22.4 22.4 0 0 1-11.77-3.32c-33.14-20.45-74.2-31.2-122.04-31.94-38.97-.6-72.77 5.74-89.44 9.58a2.24 2.24 0 0 1-2.74-2.2V106.12c0-1.03.7-1.93 1.7-2.18a341.3 341.3 0 0 1 24.65-5.06v38.52a7.5 7.5 0 1 0 15 0V84.65a3.87 3.87 0 0 1 2.98-3.79C88.53 74 187.6 56.41 248.5 114.53v286.9l-.5-.37c-62.76-49.12-151.63-36.77-186.92-29.18a3.9 3.9 0 0 1-4.73-3.8V172.33a7.5 7.5 0 1 0-15 0v195.75a18.9 18.9 0 0 0 22.88 18.47c99.75-21.45 155.28 11.26 174.52 26.32a27.93 27.93 0 0 0 34.5 0c19.25-15.06 74.77-47.77 174.52-26.32a18.9 18.9 0 0 0 22.89-18.47v-68.69a7.5 7.5 0 1 0-15 0v68.69a3.9 3.9 0 0 1-4.73 3.8c-35.3-7.59-124.17-19.94-186.92 29.18l-.5.36V114.53C324.4 56.41 423.47 74 452.66 80.86a3.87 3.87 0 0 1 2.99 3.8v179.8a7.5 7.5 0 1 0 15 0V98.89c10.54 1.78 19 3.67 24.64 5.06 1 .25 1.7 1.15 1.7 2.19z"
		data-original="#000000" />
</svg>