<svg xmlns="http://www.w3.org/2000/svg" xml:space="preserve" viewBox="0 0 512 512">
	<path
		d="M480 46H32C14 46 0 60 0 78v356c0 18 14 32 32 32h30a10 10 0 0 0 0-20H32c-7 0-12-5-12-12V126h127c3 0 6-1 7-3l18-17h231a10 10 0 0 0 0-20H164v1h-2v1h-1l-1 1-17 17H20V78c0-7 5-12 12-12h448c7 0 12 5 12 12v8h-20a10 10 0 0 0 0 20h20v328c0 7-5 12-12 12H131a10 10 0 0 0 0 20h349c18 0 32-14 32-32V78c0-18-14-32-32-32z"
		data-original="#000000" />
	<path
		d="M102 446a10 10 0 0 0 0 20 10 10 0 0 0 0-20zM45 76a10 10 0 0 0 0 20 10 10 0 0 0 0-20zM85 76a10 10 0 0 0 0 20 10 10 0 0 0 0-20zM125 76a10 10 0 0 0 0 20 10 10 0 0 0 0-20zM432 86a10 10 0 0 0 0 20 10 10 0 0 0 0-20zM330 193c-2-7-6-12-11-15-12-7-28-3-35 9L184 360c-3 6-4 13-2 19a25 25 0 0 0 30 18c7-2 12-6 16-12l100-173c3-6 4-13 2-19zm-20 9L210 375c-1 2-4 3-6 2-3-1-4-5-2-7l100-173a5 5 0 0 1 7-2l2 3-1 4zM139 341l-1-1-1-1v-26c0-10-2-19-7-27 5-8 7-17 7-27v-26l1-1 1-1a25 25 0 0 0 0-50 52 52 0 0 0-52 52v27l-2 1a25 25 0 0 0 0 50l2 1v27c0 14 6 27 15 37 10 10 23 15 37 15a25 25 0 0 0 0-50zm0 30c-8 0-16-3-22-9s-10-14-10-23v-26c0-6-2-11-6-16-4-4-10-6-16-6a5 5 0 0 1 0-10c6 0 12-2 16-6 4-5 6-10 6-16v-26c0-9 4-17 10-23s14-9 22-9a5 5 0 0 1 0 10c-6 0-11 2-15 6-4 5-7 10-7 16v26c0 8-2 15-7 21-3 3-3 9 0 12 5 6 7 13 7 21v26c0 6 3 11 7 16 4 4 9 6 15 6a5 5 0 0 1 0 10zM427 261l-2-1v-27c0-14-6-27-15-37a52 52 0 0 0-37-15 25 25 0 0 0 0 50l1 1 1 1v26c0 10 2 19 7 27-5 8-7 17-7 27v26l-1 1-1 1a25 25 0 0 0 0 50 52 52 0 0 0 52-52v-27l2-1a25 25 0 0 0 0-50zm0 30c-6 0-12 2-16 6-4 5-6 10-6 16v26c0 9-4 17-10 23s-14 9-22 9a5 5 0 0 1 0-10c6 0 11-2 15-6 4-5 7-10 7-16v-26c0-8 2-15 7-21 3-3 3-9 0-12-5-6-7-13-7-21v-26c0-6-3-11-7-16-4-4-9-6-15-6a5 5 0 0 1 0-10c8 0 16 3 22 9s10 14 10 23v26c0 6 2 11 6 16 4 4 10 6 16 6a5 5 0 0 1 0 10z"
		data-original="#000000" />
</svg>
