<svg xmlns="http://www.w3.org/2000/svg" xml:space="preserve" viewBox="0 0 512 512"><path fill="#78d2fa" d="M379 469A246 246 0 1 1 133 43a246 246 0 0 1 246 426z" data-original="#78d2fa"/><g fill="#a5dc69"><path d="M273.4 182.5c-1.8.4-5.2 1.2-6.7 2.4-1.8 1.5 1 3.4 0 4.3-1.8 1.4-3.1 4.1-7 3.8-8.2-.5-20.8-11-28.2-15 12-12.4-7-14.3-14.4-13.6-9.6.8-26.2 0-35 4.8-6 3.4-14 17.4-18.9 23-6.7 7.8-13.5 14.6-18 23.9-16 34.1 8.8 73.3 47.8 68.7 10.9-1.2 22.2-8 31.8 1 7.1 6.6 3.4 12.8 5.2 20.5 1.7 6.7 9 10.8 11.6 17 5 11.7 1.8 19.1-1.7 30-4.6 14.2 7.3 31.1 12 44.9 2.3 6.9 9 26.3 15.7 29.3 10.5 4.8 27-9.5 33.2-17.2 5-6 3.3-12.1 6.6-17.8 3.6-6 8.1-8 10.6-15.8 2.7-8.4 5.5-10.5 11.2-16.7 9.1-10 7.7-15.8 4-27.6-7.6-24.5 20-36 32.4-54 13-18.7-12-12.5-21.9-18.9-10-6.6-14.5-19.1-19.4-29.6-4.9-10.4-8.9-26-17-34.6-6.2-6.5-25-9.6-33.9-12.8zM400.4 346.8l-11.8 39.7c-2.7 9.2-12.4 39.4-26 20-5.2-7.3-1-17 1.9-23.7 3.6-8.5-1.3-12.8 1.2-20.9 3-9.3 15-9.6 20.6-16.1 4-4.5 6.4-11.8 9.2-17l4.9 18z" data-original="#a5dc69"/><path d="M469 133A245.7 245.7 0 0 0 273.6 10.8l-32.1 40.4-69 24.1-18.4 44.9 28.5 40 3-8.5A35.5 35.5 0 0 1 219 128h47l54 19 18.7 17.7v11.3l25.9 49.6 7.5-2.8a120 120 0 0 0 43.3-27.7l-6.2-9.4c-2-3 .1-7 3.7-7h15c4.5 0 8.7 2 11.6 5.3l12.3 14.4c1.2 1.4 2 3 2.7 4.7l13.6 37.4 6.5-6.5c4-4 6.1-9.6 6.2-15.4 0-4.6 2-9 5.6-12.1l5-4.5c1.2-1 2.5-2 4-2.7a246 246 0 0 0-26.4-66.3zM101.1 142.7 113 130c8.5-9.2 11-22.6 6.2-34.2A35.9 35.9 0 0 0 90.6 74a246 246 0 0 0-78.2 148.5c9.2 8 18.8 16.6 18.8 17.4-.2 1.4 34.4-4.4 34.4-4.4l-17.8-26 25.5-18.3 27.8-48.5zM125 387.7a21.1 21.1 0 0 0 13.6-26.6l-3.2-9.7a21.1 21.1 0 0 1 0-13.1c4-12-3.5-24.9-16-27.3L94.6 306l-45.4-34.5-37.6 12.2A245.1 245.1 0 0 0 104 449.3l11.2-58.3 10-3.3z" data-original="#a5dc69"/></g><path d="m374 460.4-.4.2a10 10 0 0 0 10 17.3l.4-.2a10 10 0 0 0-10-17.3z" data-original="#000000"/><path d="M477.7 128A254.3 254.3 0 0 0 322.3 8.9C256.3-8.9 187.3.2 128 34.4S26.5 123.8 8.8 189.8.2 324.8 34.4 384a255.9 255.9 0 0 0 313.2 111 10 10 0 1 0-7.2-18.6c-78 30-162.5 16.4-225.6-31l9-46.7 4.3-1.4a31.1 31.1 0 0 0 20-39.2l-3.2-9.8a11 11 0 0 1 0-6.9 31.1 31.1 0 0 0-23.6-40.2l-22.5-4.4-43.6-33.1a10 10 0 0 0-9.1-1.6l-25.5 8.3c-.6-9.1-.6-18.2 0-27.3a58 58 0 0 1 3.9 4.2c2 2 4 2.8 7.9 2.8 3.6 0 9-.7 17.9-2l17-2.7a10 10 0 0 0 6.5-15.5l-12.2-18L79 199.3a10 10 0 0 0 2.9-3.1l27.2-47.5 11-11.8a42.2 42.2 0 0 0 8.1-44.8 46 46 0 0 0-18.2-21.4 236.7 236.7 0 0 1 143.2-50.5l-17.8 22.4-66.3 23.2a10 10 0 0 0-5.9 5.6l-18.5 44.8a10 10 0 0 0 1.1 9.7l27 37.8a95 95 0 0 0-12.1 15c-2 2.9-3.8 5.5-5.1 7l-3.4 3.8a93.6 93.6 0 0 0-16 22.3 59.6 59.6 0 0 0 4.9 60.2 56.1 56.1 0 0 0 62.7 20.8c8.6-2.1 11.3-2.3 14 .2 1.4 1.3 1.5 1.5 1.5 5.8 0 2.7 0 6 1 9.9 1.4 6.1 5.3 10.4 8.4 13.8 1.5 1.7 3.1 3.4 3.6 4.6 3.1 7.5 1.8 11.6-1.2 20.7l-.8 2.4c-4.5 14 1.8 27.9 7.3 40.1 1.8 4 3.6 7.7 4.7 11 9 26.7 15.7 32.8 21.1 35.3 2.8 1.3 5.8 1.9 8.7 1.9 14.5 0 29.5-13.4 36.4-22a30.7 30.7 0 0 0 6.2-14.5c.4-2 .7-3.4 1.3-4.4.9-1.6 2-2.8 3.3-4.3 2.6-3 6-6.7 8.1-13.5 1.7-5.2 2.9-6.5 6.8-10.7l2.2-2.4c13.3-14.5 10-25.5 6.3-37.2-3-10 2.3-16.2 15.2-28.3a108 108 0 0 0 15.9-17c2-2.9 7.9-11.5 4.2-20-3.6-8.5-12.8-9.9-20.2-11-2.9-.5-7.3-1.1-8.7-2-6.2-4.1-10-12.5-13.6-20.7l-2.2-4.8c-1.3-2.8-2.6-6.1-4-9.7-3.6-9.4-7.8-20-14.8-27.5-6.3-6.7-18.2-10-28.7-12.8-3.5-1-6.8-1.8-9-2.6a10 10 0 0 0-5.8-.4 26 26 0 0 0-10.6 4.4c-.7.5-2.5 2.2-3.6 4.8-3.7-1.7-8.7-5.1-11.8-7.2h-.2c1-4.3.1-7.6-.9-9.7-5.6-11.8-24.1-11-27.8-10.6l-7.4.4c-4.4.1-9.2.3-14 .8l.2-.7a25.6 25.6 0 0 1 24-16.8h5.7a10 10 0 0 0 0-20H219c-15.9 0-30.5 8.3-38.7 21.5l-14.9-20.8 14.7-35.6 64.7-22.7a10 10 0 0 0 4.5-3.2l28.8-36a235.8 235.8 0 0 1 205.8 174l-4.2 3.8a26.7 26.7 0 0 0-8.9 19.7l-7-19a25 25 0 0 0-4.4-7.8L447 177.6a25 25 0 0 0-19.1-8.8h-15a14.5 14.5 0 0 0-12.1 22.5l1.5 2.3c-9.8 8.4-21 15.1-33 19.6l-20.7-39.6v-8.8a10 10 0 0 0-3.1-7.2L327 139.8a10 10 0 0 0-3.6-2.2l-16.8-5.9a10 10 0 1 0-6.6 18.9l14.7 5.2 14 13.3v7c0 1.6.4 3.2 1.1 4.6l26 49.6a10 10 0 0 0 12.2 4.8l7.6-2.8a130.9 130.9 0 0 0 46.9-30 10 10 0 0 0 1.2-12.7l-.5-.8h4.8a5 5 0 0 1 3.9 1.8l12.3 14.4c.4.5.7 1 .9 1.6l13.6 37.4a10 10 0 0 0 16.5 3.6l6.4-6.4c4.1-4.1 7-9.3 8.3-15a236.8 236.8 0 0 1-88 215.3 10 10 0 1 0 12.4 15.7 255.8 255.8 0 0 0 63.4-329.1zM47.3 282.8l41.2 31.4a10 10 0 0 0 4.2 1.9l24.8 4.8a11 11 0 0 1 7.5 5.3c1.6 2.8 2 6 1 9-2.1 6.4-2.2 13-.1 19.4l3.2 9.7a11.1 11.1 0 0 1-7.2 14l-9.9 3.3a10 10 0 0 0-6.7 7.6l-8 41.7a238.6 238.6 0 0 1-74.6-140l24.6-8zm-26.1-42.2zm88.6-140.8c3.3 8 1.6 17.2-4.2 23.6l-11.8 12.6c-.5.5-1 1.1-1.4 1.8l-26.7 46.7-23.7 17a10 10 0 0 0-2.5 13.7l9 13c-5.2.8-9.8 1.4-12.9 1.7l-1.8-1.7a507 507 0 0 0-10.6-9.4A236.4 236.4 0 0 1 93.6 84.8a26 26 0 0 1 16.2 14.8zm99.7 75c3 0 5.9-.2 8.4-.4h4.3a10 10 0 0 0 4.6 12.5c1.8 1 4.5 2.7 7.2 4.6 7.8 5.2 16.7 11.1 25 11.6 7.6.5 11.8-3.8 13.6-5.6l.4-.5c1-.8 2-1.9 2.7-3.2l5 1.3c6 1.6 17 4.6 19.4 7.2 4.3 4.6 7.7 13.3 10.6 21 1.5 4 3 7.6 4.6 11l2 4.5c4.6 10.3 9.8 22 21 29.2 5 3.3 11.1 4.2 16.6 5l2.2.4c-3.3 4.5-7.9 8.8-12.7 13.3-12.4 11.5-27.8 25.9-20.7 48.8 3.3 10.8 3.5 12-1.9 17.8l-2 2.2c-4.7 5-8.3 8.8-11.3 18.3-1 2.8-2 4-4.1 6.4-1.6 1.8-3.7 4.1-5.6 7.4-2.3 3.9-3 7.6-3.6 10.6-.6 3-1 4.4-2.1 5.9-2.6 3.2-7.6 8-12.6 11.1-4.7 3-7.5 3.4-8.4 3.4-1-1.2-5-6.2-10.8-23.5-1.4-4.3-3.4-8.7-5.3-13-4.3-9.3-8.7-19-6.6-25.7l.8-2.3c3.4-10.4 6.6-20.2.6-34.6-1.8-4.3-4.7-7.5-7.2-10.4a18.6 18.6 0 0 1-3.9-5c-.3-1.5-.3-3.1-.3-5 0-5.3.1-13.2-7.7-20.6-11.1-10.3-24-7.1-32.6-5-2.6.6-5 1.3-7.2 1.5a36 36 0 0 1-34.5-14.5 39.6 39.6 0 0 1-3-40 76 76 0 0 1 12.9-17.6l3.5-4c2-2.3 4-5.3 6.3-8.5 2.8-3.9 7.8-11 10-12.4 4.4-2.5 14.8-2.9 22.4-3.1z" data-original="#000000"/><path d="M374 422.7c10.2-1.6 18-12.3 24.2-33.4l11.7-39.6a10 10 0 0 0 .1-5.4l-4.8-18.2a10 10 0 0 0-18.4-2.2c-1.1 2-2.1 4.2-3 6.3a43 43 0 0 1-5 9 22 22 0 0 1-6 3.5c-5.7 2.8-13.6 6.6-16.6 16.2-1.9 6-1.2 10.7-.7 14.1.5 3 .6 4-.2 5.9l-.1.2c-3.2 7.5-9.1 21.4-.8 33.2 6 8.5 12.1 10.6 17 10.6 1 0 1.8 0 2.6-.2zm-3.3-21.9c-1.9-2.7 1-9.4 2.9-13.8v-.3c3.1-7.1 2.3-12.6 1.7-16.6-.4-2.6-.5-3.7 0-5.2.4-1.3 2.7-2.5 6.2-4.2 1.6-.7 3.3-1.6 5-2.6l-7.5 25.5a60.7 60.7 0 0 1-7.6 18l-.7-.8zM269.4 118.6a10 10 0 0 0-6.7 18.9l.7.2A10 10 0 1 0 270 119l-.6-.3z" data-original="#000000"/></svg>