<svg xmlns="http://www.w3.org/2000/svg" xml:space="preserve" viewBox="0 0 512 512">
	<path
		d="M256 0c-34.181 0-67.258 6.984-98.315 20.759-29.987 13.3-56.62 32.242-79.16 56.298-2.826 3.016-2.672 7.752.344 10.579 3.016 2.829 7.752 2.671 10.579-.344C132.514 41.33 193.221 14.969 256 14.969c125.875 0 228.281 102.407 228.281 228.281 0 55.179-19.918 137.714-50.743 210.268a10.425 10.425 0 0 1-9.608 6.357c-1.397 0-2.766-.281-4.071-.835-.441-.188-.859-.406-1.263-.645l33.904-97.719c2.826-8.15 2.041-17.11-2.029-24.606 8.469-35.276 12.95-67.356 12.95-92.821 0-18.269-2.405-36.44-7.147-54.01a8.7526 8.7526 0 0 0-.104-.35c-12.269-37.977-38.577-72.145-74.077-96.21C345.602 67.944 302 54.869 256 54.869s-89.602 13.075-126.093 37.812c-35.5 24.065-61.808 58.233-74.077 96.21-.037.116-.072.233-.104.35-4.742 17.57-7.147 35.741-7.147 54.01 0 25.493 4.483 57.535 12.953 92.815-4.073 7.496-4.86 16.459-2.033 24.611l33.903 97.719c-.403.239-.822.457-1.262.644-5.292 2.251-11.429-.228-13.679-5.521-30.824-72.555-50.742-155.09-50.742-210.269 0-47.387 14.448-92.861 41.783-131.508 2.387-3.375 1.587-8.046-1.788-10.432-3.376-2.388-8.047-1.587-10.432 1.788C28.148 144.286 12.75 192.751 12.75 243.25c0 57.031 20.386 141.864 51.936 216.122 4.104 9.659 13.524 15.466 23.411 15.466 3.308 0 6.667-.65 9.896-2.022.12-.051.236-.111.355-.164l2.98 8.59c3.217 9.272 10.754 16.475 20.163 19.269l33.815 10.042c3.249.965 6.572 1.447 9.891 1.447 3.836 0 7.666-.644 11.365-1.928l30.518-10.654c10.898-3.781 17.512-10.765 22.545-21.145 5.032-10.38 5.722-22.098 1.941-32.996l-47.54-137.024c-7.805-22.497-32.462-34.451-54.956-26.647l-28.359 9.839c-6.904 2.395-12.777 6.818-16.986 12.788l-10.658 15.112c-6.24-28.878-9.521-54.943-9.521-76.095 0-16.891 2.214-33.688 6.583-49.93C93.717 120.606 170.12 69.838 256 69.838s162.283 50.768 185.87 123.482c4.369 16.243 6.583 33.04 6.583 49.93 0 21.126-3.28 47.214-9.519 76.097l-10.658-15.112c-4.21-5.971-10.083-10.393-16.988-12.789l-28.358-9.839c-22.5-7.803-47.15 4.151-54.956 26.647l-47.54 137.024c-3.781 10.898-3.091 22.616 1.941 32.996s13.806 18.179 24.704 21.96l28.357 9.839c3.7 1.283 7.529 1.928 11.366 1.928 3.318-.001 6.642-.482 9.891-1.447l33.815-10.042c9.409-2.794 16.946-9.998 20.163-19.269l2.98-8.59c.119.053.235.113.355.164 3.166 1.346 6.505 2.028 9.925 2.028 10.211 0 19.39-6.073 23.385-15.473 31.549-74.257 51.935-159.091 51.935-216.121C499.25 109.121 390.129 0 256 0zM95.959 312.859c2.393-3.394 5.734-5.909 9.66-7.271l28.358-9.839c3.051-1.058 6.162-1.561 9.224-1.561 11.688 0 22.642 7.324 26.684 18.971l47.54 137.024c2.47 7.121 2.02 14.778-1.268 21.56s-9.02 11.878-16.141 14.348l-21.288 7.386-57.038-164.405c-1.355-3.905-5.619-5.972-9.524-4.618-3.906 1.356-5.973 5.619-4.618 9.524l56.558 163.019c-1.524-.085-3.043-.349-4.536-.792l-33.815-10.042c-4.798-1.425-8.641-5.099-10.281-9.826l-41.83-120.565c-1.64-4.729-.898-9.994 1.986-14.084zm300.57 163.477c-1.64 4.727-5.484 8.401-10.281 9.826l-33.815 10.042c-1.493.443-3.013.707-4.536.792l12.355-35.612c1.355-3.905-.713-8.169-4.618-9.524s-8.169.712-9.524 4.618l-12.836 36.999-21.288-7.386c-7.121-2.47-12.853-7.566-16.141-14.348s-3.738-14.439-1.268-21.56l47.54-137.024c4.041-11.649 14.995-18.971 26.684-18.971 3.061 0 6.173.503 9.224 1.561l21.286 7.386-42.616 122.832c-1.355 3.905.712 8.169 4.618 9.524 3.902 1.354 8.17-.713 9.524-4.618l42.134-121.444c1.144 1.011 2.174 2.159 3.071 3.431l20.331 28.827c2.884 4.09 3.626 9.355 1.986 14.084z"
		data-original="#000000" />
</svg>