<svg xmlns="http://www.w3.org/2000/svg" xml:space="preserve" viewBox="0 0 512 512">
	<path
		d="M374.65 191.04c16.15 0 29.3-13.15 29.3-29.3s-13.15-29.3-29.3-29.3h-43.06a54.83 54.83 0 0 0-13.2-38.3 45.7 45.7 0 0 0 25.32-29.91l1.7-6.32c3.18-11.87 1.55-24.27-4.6-34.9S324.75 4.74 312.88 1.56a46.06 46.06 0 0 0-56.34 32.53l-1.7 6.32a45.7 45.7 0 0 0 5.98 37.13 55.01 55.01 0 0 0-25.22 16.49l-34.04 22.3a23.9 23.9 0 0 0-8.72 30l15.95 35.2-8.75 37.51v.04c-.17.72-.26 1.47-.26 2.24v88c0 2.34.81 4.5 2.16 6.2v38.36H141.4a9.96 9.96 0 0 0-6.14-2.1H109.5a31.93 31.93 0 0 0-31.9 31.89v62.16a10 10 0 0 0 10 10h8.54a49.22 49.22 0 0 0 48.06-38.95h91.24a47.57 47.57 0 0 0 45.15-32.78l2.18 3.07v60.22a9.95 9.95 0 0 0-2.8 6.94v25.77c0 17.58 14.3 31.89 31.9 31.89h62.16a10 10 0 0 0 10-10v-8.54a49.22 49.22 0 0 0-34.42-46.87v-81.13c0-10.21-1.61-20.3-4.78-30.01l-12.36-37.8-17.95-76.5 6-30.11zM274.17 45.6l1.69-6.32a26.05 26.05 0 0 1 31.84-18.39 25.84 25.84 0 0 1 15.8 12.12 25.82 25.82 0 0 1 2.59 19.72l-1.7 6.33a25.81 25.81 0 0 1-12.1 15.78 25.78 25.78 0 0 1-18.8 2.83c-.78-.25-1.56-.47-2.35-.69l-.32-.07a25.8 25.8 0 0 1-14.05-11.58 25.83 25.83 0 0 1-2.6-19.73zm10.98 50.5c.73.24 1.47.46 2.22.66l.49.11a34.76 34.76 0 0 1 23.12 39.72l-.77 3.92a9.99 9.99 0 0 0 9.81 11.93h54.63a9.31 9.31 0 0 1 0 18.6H300.5A28.78 28.78 0 0 1 273 150.42a10 10 0 1 0-19.2 5.6 48.89 48.89 0 0 0 46.33 35.02l-4.04 20.29h-73.71l20.85-89.42a34.53 34.53 0 0 1 15.93-21.86 34.36 34.36 0 0 1 25.99-3.94zm40.67 245.56a76.43 76.43 0 0 1 3.79 23.8v78.87h-26.84V384c0-2.07-.64-4.09-1.84-5.78l-18-25.4v-35.13l33.1-5.95zm-106.05-42.33v-68h55.74l-11.08 68zm76.6-68 14.32 61.05-25.6 4.6 10.68-65.65zm-85.32-93.24a4 4 0 0 1 1.46-5.02l8.94-5.86-5.2 22.34zM97.61 435.8v-52.12a11.9 11.9 0 0 1 11.89-11.9h15.77v34.93a29.17 29.17 0 0 1-27.66 29.1zm137.83-38.9h-90.17v-23h66.67a10 10 0 0 0 10-10v-44.57h41v50.06a27.53 27.53 0 0 1-27.5 27.5zM364 492h-52.14a11.9 11.9 0 0 1-11.9-11.9v-15.77h34.94A29.18 29.18 0 0 1 364 492zm0 0"
		data-original="#000000" />
	<path
		d="M243 492H120.64a10 10 0 0 0 0 20H243a10 10 0 0 0 0-20zM86.06 492c-2.63 0-5.2 1.07-7.07 2.93-1.86 1.86-2.93 4.44-2.93 7.07s1.07 5.21 2.93 7.07c1.86 1.86 4.44 2.93 7.07 2.93s5.21-1.07 7.07-2.93c1.86-1.86 2.93-4.44 2.93-7.07s-1.07-5.21-2.93-7.07a10.09 10.09 0 0 0-7.07-2.93zM46.67 231.33c2.63 0 5.2-1.07 7.07-2.93 1.86-1.86 2.93-4.44 2.93-7.07s-1.07-5.21-2.93-7.07c-1.86-1.86-4.44-2.93-7.07-2.93s-5.2 1.07-7.07 2.93a10.03 10.03 0 0 0 0 14.14 10.08 10.08 0 0 0 7.07 2.93zM145.27 277.33a10 10 0 0 0-10-10H10a10 10 0 0 0 0 20h125.27a10 10 0 0 0 10-10zM86.67 231.33H154a10 10 0 0 0 0-20H86.67a10 10 0 0 0 0 20zm0 0"
		data-original="#000000" />
</svg>