<svg xmlns="http://www.w3.org/2000/svg" xml:space="preserve" viewBox="0 0 58 58"><path fill="#38454f" d="M24.1 45c.2.58.75 1 1.4 1h8c.65 0 1.2-.42 1.4-1H55V12.07C55 10.37 53.63 9 51.93 9H6.07A3.07 3.07 0 0 0 3 12.07V45h21.1z" data-original="#38454f"/><path fill="#546a79" d="M6 12h46v30H6z" data-original="#546a79"/><g fill="#839caa"><path d="M11 22a1 1 0 0 0 .7-.3l4-4a1 1 0 1 0-1.4-1.4l-4 4A1 1 0 0 0 11 22zM11 27a1 1 0 0 0 .7-.3l2-2a1 1 0 1 0-1.4-1.4l-2 2A1 1 0 0 0 11 27zM14.29 21.29c-.18.19-.29.45-.29.71 0 .26.1.52.29.71.19.18.45.29.71.29s.52-.11.71-.29c.18-.19.29-.45.29-.71 0-.26-.11-.52-.29-.71a1.06 1.06 0 0 0-1.42 0zM16.3 20.7a1 1 0 0 0 1.4 0l3-3a1 1 0 1 0-1.4-1.4l-3 3a1 1 0 0 0 0 1.4zM19.3 21.3l-9 9a1 1 0 1 0 1.4 1.4l9-9a1 1 0 1 0-1.4-1.4zM21.29 19.29c-.18.19-.29.45-.29.71 0 .26.1.52.29.71.19.18.45.29.71.29s.52-.11.71-.29c.18-.19.29-.45.29-.71 0-.27-.11-.52-.29-.71a1.05 1.05 0 0 0-1.42 0zM25.7 16.3a1 1 0 0 0-1.4 0l-1 1a1 1 0 1 0 1.4 1.4l1-1a1 1 0 0 0 0-1.4z" data-original="#839caa"/></g><path fill="#afb6bb" d="M34.9 45c-.2.58-.75 1-1.4 1h-8a1.5 1.5 0 0 1-1.4-1H.57a.58.58 0 0 0-.58.58v2.84c0 .32.26.58.58.58h56.84c.32 0 .58-.26.58-.58v-2.84a.58.58 0 0 0-.58-.58H34.91z" data-original="#afb6bb"/></svg>