<svg xmlns="http://www.w3.org/2000/svg" xml:space="preserve" viewBox="0 0 48 48">
	<g data-name="11 - 20">
		<path
			d="m42.442 28.575-6.191-4.418-3.2-6.393A4.979 4.979 0 0 0 28.577 15h-9.154a4.979 4.979 0 0 0-4.476 2.764l-3.2 6.393-6.181 4.412a3.608 3.608 0 0 0-1.122 4.664 3.518 3.518 0 0 0 2.294 1.687 3.475 3.475 0 0 0 .745.08 3.537 3.537 0 0 0 .832-.11 4.025 4.025 0 0 0 2.618 4.177l2.826 1.033a3.989 3.989 0 0 0-.479 1.874 4.149 4.149 0 0 0 .241 1.386A4.062 4.062 0 0 0 17.326 46a4.01 4.01 0 0 0 1.366-.24L24 43.824l5.309 1.932a4.015 4.015 0 0 0 4.93-5.656l2.833-1.031a4.048 4.048 0 0 0 2.648-3.789c0-.13-.021-.259-.034-.389a3.459 3.459 0 0 0 .826.109 3.5 3.5 0 0 0 3.1-1.862 3.578 3.578 0 0 0-1.17-4.563zM17 32.7l-3.306-1.2c-.04-.015-.082-.019-.123-.032l2.96-2.113a3.4 3.4 0 0 0 .469-.4zm1.01 11.179a2.049 2.049 0 0 1-2.608-1.2 2.129 2.129 0 0 1-.122-.707 2.017 2.017 0 0 1 .387-1.18l5.413 1.97zm14.59-1.215a2.032 2.032 0 0 1-2.6 1.213l-18.384-6.689a2.03 2.03 0 1 1 1.39-3.815l18.377 6.688a2.034 2.034 0 0 1 1.217 2.603zm3.792-5.474-3.635 1.324a4 4 0 0 0-.687-.332l-5.144-1.873 8.067-2.938a2.048 2.048 0 0 1 2.608 1.2 2.129 2.129 0 0 1 .122.707 2.039 2.039 0 0 1-1.334 1.912zm-5.384-4.5v-3.742a3.48 3.48 0 0 0 .466.4l2.96 2.113c-.041.013-.083.016-.123.031zm10.839-.5a1.535 1.535 0 0 1-2.2.523l-7.007-5a1.508 1.508 0 0 1-.47-.549l-1.27-2.521a1 1 0 0 0-1.894.447v8.333l-5 1.823-5-1.822V25.09a1 1 0 0 0-1.894-.447l-1.263 2.524a1.5 1.5 0 0 1-.473.553l-7.006 5a1.5 1.5 0 0 1-2.18-.482 1.592 1.592 0 0 1 .55-2.041l6.384-4.556a1 1 0 0 0 .314-.367l3.309-6.615A2.989 2.989 0 0 1 19.423 17h9.154a2.989 2.989 0 0 1 2.687 1.659l3.309 6.615a1 1 0 0 0 .314.367L41.28 30.2a1.6 1.6 0 0 1 .564 2z"
			data-original="#000000" />
		<path
			d="M30.5 8.5A6.5 6.5 0 1 0 24 15a6.508 6.508 0 0 0 6.5-6.5zM24 13a4.5 4.5 0 1 1 4.5-4.5A4.505 4.505 0 0 1 24 13zM8 12h1v1a1 1 0 0 0 2 0v-1h1a1 1 0 0 0 0-2h-1V9a1 1 0 0 0-2 0v1H8a1 1 0 0 0 0 2zM39 18a1 1 0 0 0 0 2h1v1a1 1 0 0 0 2 0v-1h1a1 1 0 0 0 0-2h-1v-1a1 1 0 0 0-2 0v1z"
			data-original="#000000" />
		<circle cx="5" cy="19" r="1" data-original="#000000" />
	</g>
</svg>