<svg xmlns="http://www.w3.org/2000/svg" xml:space="preserve" viewBox="0 0 351.28 351.28"><path fill="#fcbc1d" d="M296.21 54.9a170.85 170.85 0 0 1 37.56 56.47 170.2 170.2 0 0 1 12.51 64.27 170.22 170.22 0 0 1-51.22 121.88 170.61 170.61 0 0 1-38.3 28.27 169.8 169.8 0 0 1-89.64 20.28c-53.27-2.62-100.11-29.67-129.57-70.17A169.9 169.9 0 0 1 5.09 170.05 169.87 169.87 0 0 1 42.6 68.78 170.36 170.36 0 0 1 175.64 5a169.92 169.92 0 0 1 120.57 49.9z"/><path d="M190.25 337a170.24 170.24 0 0 1-53.98-31.21 170.25 170.25 0 0 1-59.78-129.72c0-46.04 18.24-87.83 47.88-118.52a169.69 169.69 0 0 1 87.02-48.36 171.25 171.25 0 0 0-35.75-3.76 170.3 170.3 0 0 0-64.53 12.62 170.96 170.96 0 0 0-58.23 39.5A170.07 170.07 0 0 0 5 176.07c0 51.92 23.2 98.42 59.78 129.72a170.24 170.24 0 0 0 53.98 31.2 170.33 170.33 0 0 0 56.88 9.71c12.26 0 24.21-1.3 35.74-3.75a169.3 169.3 0 0 1-21.13-5.95zM255.73 135.54c-2.44-11.87 1.15-23.14 8.29-28.55a16.41 16.41 0 0 1 6.57-3c11.32-2.33 23 8.02 26.1 23.13 3.1 15.1-3.54 29.22-14.86 31.55-3.62.75-7.3.19-10.7-1.4-7.22-3.4-13.28-11.47-15.4-21.73z" opacity=".25"/><path fill="#fcbc1d" d="M255.73 135.54c-2.44-11.87 1.15-23.14 8.29-28.55 7.22 3.4 13.3 11.46 15.4 21.72 2.45 11.88-1.14 23.14-8.28 28.55-7.23-3.39-13.3-11.45-15.41-21.72z"/><path fill="#333" d="M278.62 164c-3.23 0-6.49-.74-9.6-2.2a5 5 0 0 1 4.24-9.06 11.83 11.83 0 0 0 7.55 1.03c8.46-1.73 13.49-13.48 10.99-25.65-2.5-12.16-11.75-20.98-20.2-19.24a11.42 11.42 0 0 0-4.57 2.1c-5.82 4.41-8.4 13.88-6.4 23.55a5 5 0 0 1-9.8 2.02c-2.79-13.58 1.2-26.75 10.17-33.54a21.38 21.38 0 0 1 8.57-3.92c14.01-2.88 28.37 9.25 32.03 27.02 3.64 17.78-4.77 34.59-18.77 37.46-1.38.28-2.8.43-4.21.43z"/><g fill="#fff"><path d="M297.3 98.96a5 5 0 0 1-4.2-2.3 146.9 146.9 0 0 0-22.4-26.98 5 5 0 0 1 6.89-7.26 156.89 156.89 0 0 1 23.92 28.83 5 5 0 0 1-4.2 7.7zM273.44 290.35a4.99 4.99 0 0 1-3.42-8.66 146.17 146.17 0 0 0 46.22-106.33c0-8.73-.78-17.48-2.32-26.01a5 5 0 0 1 9.84-1.78 156.48 156.48 0 0 1 2.48 27.8c0 42.84-18 84.26-49.39 113.63-.96.9-2.2 1.35-3.41 1.35zM252.4 306.8a5 5 0 0 1-2.72-9.19c2.55-1.66 5.08-3.41 7.52-5.22a5 5 0 1 1 5.96 8.03c-2.6 1.93-5.31 3.81-8.04 5.58-.84.55-1.78.8-2.72.8z"/></g><path fill="#333" d="M175.64 351.28C78.8 351.28 0 272.48 0 175.64S78.8 0 175.64 0c96.85 0 175.64 78.8 175.64 175.64 0 96.85-78.8 175.64-175.64 175.64zm0-341.28C84.31 10 10 84.3 10 175.64s74.3 165.64 165.64 165.64c91.34 0 165.64-74.3 165.64-165.64S266.98 10 175.64 10z"/><path d="M204.15 182.16a32.4 32.4 0 0 1-42.46 30.8 32.4 32.4 0 0 0 0-61.6 32.4 32.4 0 0 1 42.46 30.8z" opacity=".25"/><path fill="#fcbc1d" d="M99.5 259.02a18.92 18.92 0 0 1-6.95 5.68c-12.11 5.75-28.15-2.7-35.82-18.86-7.67-16.16-4.07-33.93 8.04-39.68a18.46 18.46 0 0 1 5.72-1.65c11.04-1.36 23.58 6.8 30.1 20.52 5.9 12.47 5.13 25.87-1.1 34z"/><path d="M99.5 259.02c-11.05 1.37-23.6-6.79-30.1-20.5-5.91-12.47-5.13-25.88 1.09-34 11.04-1.37 23.58 6.78 30.1 20.51 5.9 12.47 5.13 25.87-1.1 34z" opacity=".25"/><path fill="#333" d="M84.51 271.48c-12.34 0-25.41-8.99-32.3-23.5-8.84-18.62-4.17-39.4 10.4-46.33 7.32-3.47 15.86-3 24.06 1.3 7.71 4.07 14.26 11.15 18.43 19.94a5 5 0 1 1-9.03 4.29c-3.25-6.85-8.25-12.31-14.06-15.37-5.34-2.81-10.7-3.21-15.1-1.12-9.6 4.55-12.14 19.36-5.67 33.01 6.48 13.65 19.56 21.05 29.16 16.49 4.4-2.09 7.48-6.5 8.68-12.4a5 5 0 0 1 9.8 1.98c-1.84 9.07-6.88 15.98-14.19 19.45a23.58 23.58 0 0 1-10.18 2.26zM171.76 219.56a37.44 37.44 0 0 1-37.4-37.4 5 5 0 1 1 10 0c0 15.1 12.29 27.4 27.4 27.4s27.4-12.3 27.4-27.4a27.43 27.43 0 0 0-41.49-23.5 5 5 0 1 1-5.15-8.58 37.44 37.44 0 0 1 56.63 32.08 37.44 37.44 0 0 1-37.4 37.4zM169.76 100.18c-4.72 0-9.15-1.83-12.48-5.17a5 5 0 0 1 7.07-7.07 7.63 7.63 0 0 0 10.82 0 7.66 7.66 0 0 0-10.82-10.82 5 5 0 1 1-7.07-7.07 17.53 17.53 0 0 1 12.48-5.17 17.67 17.67 0 0 1 0 35.3zM232.15 280.55c-4.72 0-9.15-1.83-12.48-5.17a5 5 0 0 1 7.07-7.07 7.6 7.6 0 0 0 10.82 0 7.6 7.6 0 0 0 2.24-5.4 7.6 7.6 0 0 0-2.24-5.42c-1.45-1.44-3.37-2.24-5.41-2.24s-3.97.8-5.41 2.24a5 5 0 1 1-7.07-7.07c3.33-3.33 7.76-5.17 12.48-5.17s9.14 1.84 12.48 5.17c3.33 3.34 5.17 7.77 5.17 12.48s-1.84 9.15-5.17 12.48a17.53 17.53 0 0 1-12.48 5.17z"/></svg>