<svg xmlns="http://www.w3.org/2000/svg" xml:space="preserve" viewBox="0 0 512 512">
	<path
		d="M104 496h304a88.1 88.1 0 0 0 88-88 8 8 0 0 0-8-8h-73.38a24 24 0 1 0-45.24 0H261.67a56 56 0 1 0-107.34 0H24a8 8 0 0 0-8 8 88.1 88.1 0 0 0 88 88Zm280-104a8 8 0 1 1 8 8 8 8 0 0 1-8-8Zm-148.3 8a31.79 31.79 0 0 0 3.3-8h8.2a39.88 39.88 0 0 1-2.55 8ZM176 376h-7.2a39.76 39.76 0 0 1 5.84-14.04l5.8 5.8a31.82 31.82 0 0 0-3.44 8.3 8.18 8.18 0 0 0-1-.06Zm71.2 0h-8.21a31.81 31.81 0 0 0-3.43-8.24l5.8-5.8A39.76 39.76 0 0 1 247.2 376Zm-22.96-19.56a31.81 31.81 0 0 0-8.24-3.43v-8.2a39.76 39.76 0 0 1 14.04 5.83ZM200 353.01a31.81 31.81 0 0 0-8.24 3.43l-5.8-5.8a39.76 39.76 0 0 1 14.04-5.83ZM192 384a16 16 0 1 1 16 16 16.02 16.02 0 0 1-16-16Zm-23.19 8H176a8.18 8.18 0 0 0 1-.07 31.78 31.78 0 0 0 3.3 8.07h-8.95a39.88 39.88 0 0 1-2.54-8Zm310.75 24A72.1 72.1 0 0 1 408 480H104a72.1 72.1 0 0 1-71.56-64Z"
		data-original="#000000" />
	<path
		d="M88 448h72a8 8 0 0 0 0-16H88a8 8 0 0 0 0 16ZM192 448h16a8 8 0 0 0 0-16h-16a8 8 0 0 0 0 16ZM367.46 221.2c-8.1 10.38-13.3 21.96-14.63 32.37a50.52 50.52 0 0 0-11.35 14.08c-8.25 15-9.24 29.4-2.91 39.44a2.63 2.63 0 0 1-.47.64l-.21.22-39.7 42.85a18.87 18.87 0 0 0 26.58 26.77l40.83-37.42.25-.24a2.87 2.87 0 0 1 2.52-.77c.75.13 1.5.24 2.28.32 10.65 7.43 26.98 7.16 41.7-.94a50.53 50.53 0 0 0 14.08-11.35c10.41-1.32 22-6.52 32.37-14.63 15.6-12.17 24.9-28.02 24.55-41.04a39.75 39.75 0 0 0 7.2-10.37 38.37 38.37 0 0 0 3.11-24.41c4.78-18.21 2.18-33.42-7.39-42.98s-24.77-12.17-42.98-7.4a38.37 38.37 0 0 0-24.41 3.11 39.78 39.78 0 0 0-10.38 7.2c-13.01-.34-28.87 8.96-41.04 24.55Zm42.24-8.35a8 8 0 0 0 8.1-2.72 23.3 23.3 0 0 1 7.99-6.24 22.16 22.16 0 0 1 15.48-1.58 8 8 0 0 0 4.37-.02c13.28-3.85 23.69-2.86 29.31 2.76s6.6 16.03 2.76 29.31a8.01 8.01 0 0 0-.02 4.37 22.16 22.16 0 0 1-1.58 15.48 23.3 23.3 0 0 1-6.24 7.99 8 8 0 0 0-2.72 8.1c1.55 6.37-4.83 19.2-18.2 29.63-8.94 6.99-19 11.3-26.92 11.56a8 8 0 0 0-6.26 3.36 33.34 33.34 0 0 1-11.13 9.66c-8.04 4.42-19.77 6.33-25.69 1.17a8 8 0 0 0-4.8-1.96 29.24 29.24 0 0 1-3.12-.35 18.89 18.89 0 0 0-16.35 5.09l-40.76 37.34a2.87 2.87 0 0 1-4.02-4.1l39.64-42.78a19.04 19.04 0 0 0 5.33-14.5 8 8 0 0 0-1.96-4.79c-4.01-4.6-3-14.12 2.59-24.27a33.34 33.34 0 0 1 9.66-11.13 8 8 0 0 0 3.35-6.27c.26-7.91 4.58-17.98 11.56-26.92 10.44-13.37 23.26-19.75 29.63-18.19Z"
		data-original="#000000" />
	<path
		d="m379.9 285.13-14.26 14.25a8 8 0 1 0 11.31 11.32l14.26-14.25 21.63 2.4a8.16 8.16 0 0 0 .9.05 8 8 0 0 0 .87-15.95l-8.92-1 7.83-7.82 24.09 4.81a8 8 0 1 0 3.14-15.69l-13.63-2.72 8.92-8.92 14.07 3.24a8 8 0 0 0 3.6-15.59l-4.32-1 12.42-12.42a8 8 0 0 0-11.31-11.31l-12.43 12.42-1-4.32a8 8 0 1 0-15.59 3.6l3.25 14.06-8.92 8.92-2.73-13.62a8 8 0 1 0-15.69 3.13l4.82 24.1-7.83 7.82-.99-8.91a8 8 0 0 0-15.9 1.76ZM50.12 363.98a39.74 39.74 0 0 0 24.28 18.65A40.2 40.2 0 0 0 84.84 384a40.01 40.01 0 0 0 10.3-78.65 40.59 40.59 0 0 0-7-1.22 34 34 0 0 0 1.54-12.3l-.12-1.89a8 8 0 0 0-15.97.95l.12 1.89a17.82 17.82 0 0 1-2.93 10.93l-7.06-12.23a8 8 0 1 0-13.86 8l7.06 12.23a17.82 17.82 0 0 1-10.94-2.94l-1.57-1.05a8 8 0 0 0-8.82 13.35l1.57 1.04a34.03 34.03 0 0 0 11.44 4.86 39.98 39.98 0 0 0 1.52 37ZM105.56 332a24 24 0 1 1-41.58 23.98 24.02 24.02 0 0 1 20.75-36 24.13 24.13 0 0 1 6.26.83A23.84 23.84 0 0 1 105.56 332ZM338.06 114.36a8 8 0 0 0-8.26 7.73l-.07 1.89a34.03 34.03 0 0 0 1.86 12.28 39.97 39.97 0 0 0-30.74 20.66 40 40 0 1 0 70.87 1.1 34 34 0 0 0 11.3-5.14l1.55-1.08a8 8 0 0 0-9.17-13.11l-1.54 1.08a17.82 17.82 0 0 1-10.85 3.22l6.73-12.4a8 8 0 1 0-14.07-7.64l-6.73 12.42a17.81 17.81 0 0 1-3.21-10.86l.06-1.88a8 8 0 0 0-7.73-8.27Zm19.04 73.08a24 24 0 0 1-42.2-22.89 24.03 24.03 0 0 1 32.54-9.66 24.03 24.03 0 0 1 9.66 32.55ZM42.67 113.74a55.9 55.9 0 0 0 11.63 8.01 63.5 63.5 0 0 0 18.81 29.95 64.38 64.38 0 0 0 10.3 7.52A72 72 0 0 0 151.47 208q2.04 0 4.1-.11a71.44 71.44 0 0 0 43.98-18.23l27.18 24.3a8 8 0 1 0 10.66-11.92l-27.17-24.3a71.99 71.99 0 0 0-43.16-112.05 64.39 64.39 0 0 0-8.62-9.4 63.51 63.51 0 0 0-31.85-15.37 56 56 0 1 0-83.92 72.82Zm7.52-68.4a39.74 39.74 0 0 1 27.58-13.28 41.4 41.4 0 0 1 2.28-.06 40 40 0 0 1 34.75 20.28 8 8 0 0 0 6.11 4 47.64 47.64 0 0 1 26.87 11.94 48.18 48.18 0 0 1 7.95 9.15 8 8 0 0 0 5.3 3.44A56 56 0 0 1 198.22 167l-20.24-18.1 3.47-24.32a8 8 0 1 0-15.84-2.26l-1.96 13.76-15.48-13.85 3.47-24.32a8 8 0 1 0-15.84-2.26l-1.97 13.76-15.48-13.84 3.47-24.32a8 8 0 1 0-15.84-2.26L104 82.74l-18.68-16.7a8 8 0 0 0-10.66 11.92l18.67 16.7-13.45 3.48a8 8 0 1 0 4 15.5l23.78-6.16 15.49 13.85-13.46 3.48a8 8 0 1 0 4 15.49l23.79-6.15L152.97 148l-13.45 3.48a8 8 0 1 0 4 15.49l23.78-6.15 20.24 18.1a56 56 0 0 1-89.77-27.36 8 8 0 0 0-4.01-4.89 48.14 48.14 0 0 1-9.98-6.89 47.64 47.64 0 0 1-14.85-25.38 8 8 0 0 0-4.66-5.63 40 40 0 0 1-14.08-63.44ZM244.76 95.27l39.94 26.63a8 8 0 0 0 11.1-2.22l12.24-18.36a36 36 0 0 0 19.93-65.95L308 22.05a36 36 0 0 0-53.21 43.76l-12.25 18.37a8 8 0 0 0 2.22 11.09Zm25.9-24.43a8 8 0 0 0 .2-8.55 20 20 0 0 1 28.26-26.93l19.97 13.31a20 20 0 0 1 5.54 27.74 20.1 20.1 0 0 1-19.53 8.7 8 8 0 0 0-7.81 3.48l-10.38 15.56L260.3 86.4ZM218.37 299.96a8 8 0 0 0 3.6 4.96l40.94 25.05a8 8 0 0 0 11-2.64l11.52-18.83a36.21 36.21 0 0 0 29.27-17.17 36 36 0 0 0-11.91-49.5l-20.47-12.53a36 36 0 0 0-49.5 11.91 36.2 36.2 0 0 0-1.98 33.88l-11.52 18.83a8 8 0 0 0-.95 6.04Zm28.54-20.46a8 8 0 0 0-.13-8.55 20.11 20.11 0 0 1-.31-21.38 20 20 0 0 1 27.5-6.62l20.47 12.53a20 20 0 0 1 6.62 27.5 20.1 20.1 0 0 1-19.2 9.44 8.01 8.01 0 0 0-7.66 3.78l-9.76 15.95-27.3-16.7ZM264 176a24 24 0 1 0-24-24 24.03 24.03 0 0 0 24 24Zm0-32a8 8 0 1 1-8 8 8 8 0 0 1 8-8ZM54.3 243.46a46.62 46.62 0 0 0 27.14 8.77l.8-.01 13.9-.25a8 8 0 0 0 7.5-10.38l-4.13-13.26a46.61 46.61 0 0 0-17.1-23.79 23.96 23.96 0 0 0-22.37-3.06l-.08.04a24 24 0 0 0-5.66 41.93Zm11.2-26.93.06-.03a7.98 7.98 0 0 1 7.48 1.02 30.5 30.5 0 0 1 11.2 15.56l.95 3.08-3.23.06a30.57 30.57 0 0 1-18.29-5.73 8 8 0 0 1 1.83-13.96ZM160 320a48 48 0 1 0-48-48 48.05 48.05 0 0 0 48 48Zm0-80a32 32 0 1 1-32 32 32.04 32.04 0 0 1 32-32Z"
		data-original="#000000" />
	<path
		d="M144 288a7.98 7.98 0 0 0 3.58-.85l12.42-6.2 12.42 6.2a8 8 0 0 0 7.16-14.3l-11.58-5.8V256a8 8 0 0 0-16 0v11.06l-11.58 5.78a8 8 0 0 0 3.59 15.16Z"
		data-original="#000000" />
</svg>